<!-- icon666.com - MILLIONS vector ICONS FREE --><svg version="1.1" id="Capa_1" xmlns="http://www.w3.org/2000/svg" xmlns:xlink="http://www.w3.org/1999/xlink" x="0px" y="0px" viewBox="0 0 512.002 512.002" style="enable-background:new 0 0 512.002 512.002;" xml:space="preserve"><g><g><path d="M443.501,255c-20.678,0-37.5,16.822-37.5,37.5c0,20.678,16.822,37.5,37.5,37.5c20.678,0,37.5-16.822,37.5-37.5 C481.001,271.822,464.179,255,443.501,255z M443.501,315c-12.406,0-22.5-10.093-22.5-22.5c0-12.407,10.094-22.5,22.5-22.5 s22.5,10.093,22.5,22.5C466.001,304.907,455.907,315,443.501,315z" fill="#000000" style="fill: rgb(0, 47, 168);"></path></g></g><g><g><path d="M453.501,345h-20c-12.244,0-22.641,8.046-26.192,19.126c-9.404-2.697-16.308-11.367-16.308-21.626v-120 c0-18.417-13.349-33.765-30.878-36.903C357.052,173.764,346.281,165,333.501,165h-50c-12.563,0-23.178,8.472-26.452,20h-47.096 c-3.274-11.528-13.889-20-26.452-20h-63.255c-3.484-17.096-18.635-30-36.745-30c-20.678,0-37.5,16.822-37.5,37.5V255h-7.5 c-4.143,0-7.5,3.358-7.5,7.5c0,4.142,3.357,7.5,7.5,7.5h8.255c3.484,17.096,18.635,30,36.745,30h23.044 c1.621,11.281,6.84,21.411,14.456,29.192v159.902l-24.872,8.291c-3.93,1.31-6.053,5.557-4.743,9.487 c1.048,3.143,3.974,5.13,7.114,5.13c0.786,0,1.586-0.125,2.373-0.387l30-10c3.062-1.021,5.128-3.887,5.128-7.115V339.924 c6.824,3.25,14.452,5.076,22.5,5.076c8.445,0,16.424-2.016,23.5-5.574V494.5c0,3.228,2.065,6.094,5.128,7.115l30,10 c0.787,0.262,1.587,0.387,2.373,0.387c3.141,0,6.066-1.988,7.114-5.13c1.31-3.93-0.813-8.177-4.743-9.487l-24.872-8.291v-160.95 c8.68-9.369,14-21.894,14-35.644V200h45v92.5c0,14.269,5.73,27.22,15,36.692v159.902l-24.872,8.291 c-3.93,1.31-6.053,5.557-4.743,9.487c1.048,3.143,3.974,5.13,7.114,5.13c0.786,0,1.586-0.125,2.373-0.387l30-10 c3.062-1.021,5.128-3.887,5.128-7.115V339.924c6.824,3.25,14.452,5.076,22.5,5.076c8.048,0,15.676-1.825,22.5-5.076V494.5 c0,3.228,2.065,6.094,5.128,7.115l30,10c0.787,0.262,1.587,0.387,2.373,0.387c3.141,0,6.066-1.988,7.114-5.13 c1.31-3.93-0.813-8.177-4.743-9.487l-24.872-8.291V329.192c9.27-9.472,15-22.423,15-36.692v-91.21c8.729,3.096,15,11.433,15,21.21 v120c0,18.11,12.904,33.261,30,36.745V504.5c0,4.142,3.357,7.5,7.5,7.5s7.5-3.358,7.5-7.5v-57.02 c6.272,4.719,14.064,7.52,22.5,7.52c8.436,0,16.228-2.801,22.5-7.52v57.02c0,4.142,3.357,7.5,7.5,7.5s7.5-3.358,7.5-7.5v-132 C481.001,357.336,468.664,345,453.501,345z M106.001,285h-22.5c-9.777,0-18.114-6.271-21.21-15h6.21c4.143,0,7.5-3.358,7.5-7.5 c0-4.142-3.357-7.5-7.5-7.5h-7.5v-25.139c10.902,13.485,26.877,22.699,45,24.712V285z M106.001,239.456 c-19.72-2.834-35.924-16.666-42.195-35.062c5.728,3.55,12.475,5.607,19.695,5.607c8.436,0,16.228-2.801,22.5-7.521V239.456z M83.501,195c-12.406,0-22.5-10.093-22.5-22.5s10.094-22.5,22.5-22.5c12.406,0,22.5,10.093,22.5,22.5S95.907,195,83.501,195z M158.501,330c-18.11,0-33.261-12.904-36.745-30h73.491C191.762,317.096,176.611,330,158.501,330z M196.001,285h-75V180h62.5 c6.893,0,12.5,5.607,12.5,12.5V285z M308.501,330c-18.11,0-33.261-12.904-36.745-30h73.491 C341.762,317.096,326.611,330,308.501,330z M346.001,285h-75v-92.5c0-6.893,5.607-12.5,12.5-12.5h50c6.893,0,12.5,5.607,12.5,12.5 V285z M443.501,440c-11.561,0-21.11-8.766-22.358-20h44.716C464.611,431.234,455.062,440,443.501,440z M466.001,405h-45v-32.5 c0-6.893,5.607-12.5,12.5-12.5h20c6.893,0,12.5,5.607,12.5,12.5V405z" fill="#000000" style="fill: rgb(0, 47, 168);"></path></g></g><g><g><path d="M308.501,45c-28.948,0-52.5,23.551-52.5,52.5s23.552,52.5,52.5,52.5s52.5-23.551,52.5-52.5S337.449,45,308.501,45z M308.501,135c-20.678,0-37.5-16.822-37.5-37.5s16.822-37.5,37.5-37.5c20.678,0,37.5,16.822,37.5,37.5S329.179,135,308.501,135z" fill="#000000" style="fill: rgb(0, 47, 168);"></path></g></g><g><g><path d="M173.001,98.003c-3.519,0-6.833-1.725-8.866-4.614c-1.404-1.996-3.692-3.184-6.134-3.184 c-2.442,0-4.729,1.188-6.134,3.184c-2.033,2.889-5.348,4.614-8.866,4.614c-4.143,0-7.5,3.358-7.5,7.5c0,4.142,3.357,7.5,7.5,7.5 c5.44,0,10.674-1.725,15-4.81c4.326,3.085,9.56,4.81,15,4.81c4.143,0,7.5-3.358,7.5-7.5 C180.501,101.361,177.144,98.003,173.001,98.003z" fill="#000000" style="fill: rgb(0, 47, 168);"></path></g></g><g><g><path d="M180.836,50.001c4.762-5.312,7.665-12.323,7.665-20.001c0-16.542-13.458-30-30-30c-16.542,0-30,13.458-30,30 c0,7.678,2.903,14.689,7.665,20.001c-17.808,8.408-30.165,26.534-30.165,47.499c0,28.949,23.552,52.5,52.5,52.5 c28.948,0,52.5-23.551,52.5-52.5C211.001,76.535,198.645,58.409,180.836,50.001z M158.501,15c8.271,0,15,6.729,15,15 s-6.729,15-15,15s-15-6.729-15-15S150.229,15,158.501,15z M158.501,135c-20.678,0-37.5-16.822-37.5-37.5s16.822-37.5,37.5-37.5 c20.678,0,37.5,16.822,37.5,37.5S179.179,135,158.501,135z" fill="#000000" style="fill: rgb(0, 47, 168);"></path></g></g></svg>