<!-- icon666.com - MILLIONS vector ICONS FREE --><svg version="1.1" id="Layer_1" xmlns="http://www.w3.org/2000/svg" xmlns:xlink="http://www.w3.org/1999/xlink" x="0px" y="0px" viewBox="0 0 511.984 511.984" style="enable-background:new 0 0 511.984 511.984;" xml:space="preserve"><g><g><path d="M447.986,255.992c0,0-32.702,8.688-75.873,11.797c14.25-21.781,22.531-47.827,22.531-75.795H266.656V111.7V63.998 c0-23.53,19.148-42.67,42.662-42.67c23.531,0,42.671,19.14,42.671,42.67c0,5.891,4.781,10.672,10.656,10.672 c5.905,0,10.671-4.781,10.671-10.672C373.316,28.656,344.677,0,309.318,0c-35.342,0-63.998,28.656-63.998,63.998v15.968 C234,69.826,219.048,63.67,202.657,63.67c-35.343,0-63.998,28.655-63.998,63.998c0,5.891,4.773,10.656,10.664,10.656 s10.671-4.766,10.671-10.656c0-23.53,19.14-42.67,42.663-42.67c23.522,0,42.663,19.14,42.663,42.67v47.686v16.64H117.325 c0,18.859,3.781,36.827,10.601,53.217c-37.124,3.656-63.928,10.781-63.928,10.781c0,82.014,51.428,151.996,123.786,179.51 l-38.46,76.482h213.322l-38.28-76.545C396.644,407.894,447.986,337.943,447.986,255.992z M371.394,213.322 c-3.75,20.546-12.905,39.624-26.779,55.545c-0.672,0.016-1.359,0.016-2.047,0.016c-28.453,0-58.982-3.219-86.576-12.891 c-27.601-9.671-58.139-12.89-86.583-12.89c-6.414,0-12.718,0.172-18.867,0.453c-4.679-9.531-8.03-19.687-9.96-30.233H371.394z M328.131,490.657H183.932l24.444-48.624c15.226,3.891,31.179,5.953,47.616,5.953c16.5,0,32.515-2.078,47.795-6L328.131,490.657z M322.412,413.254c-21.015,8.89-43.373,13.405-66.42,13.405c-23.054,0-45.397-4.516-66.427-13.405 c-20.32-8.594-38.569-20.906-54.249-36.578c-15.679-15.687-27.991-33.936-36.585-54.264 c-6.703-15.844-10.914-32.421-12.578-49.498c18.156-3.594,49.186-8.484,83.255-8.484c30.624,0,57.381,3.938,79.529,11.703 c26.695,9.344,58.193,14.077,93.63,14.077c32.139,0,61.561-3.874,82.013-7.483c-2.125,13.624-5.922,26.904-11.343,39.686 c-8.594,20.328-20.891,38.577-36.562,54.264C360.989,392.347,342.74,404.66,322.412,413.254z" fill="#000000" style="fill: rgb(0, 47, 168);"></path></g></g></svg>