<!-- icon666.com - MILLIONS vector ICONS FREE --><svg id="Capa_1" enable-background="new 0 0 512 512" viewBox="0 0 512 512" xmlns="http://www.w3.org/2000/svg"><g><path d="m256 226.622c23.71 0 42.999-19.29 42.999-43s-19.289-43-42.999-43-43 19.29-43 43 19.29 43 43 43zm0-71c15.438 0 27.999 12.561 27.999 28s-12.561 28-27.999 28c-15.439 0-28-12.561-28-28s12.561-28 28-28z" fill="#000000" style="fill: rgb(0, 47, 168);"></path><path d="m220.5 264.907h70.999c4.143 0 7.5-3.357 7.5-7.5s-3.357-7.5-7.5-7.5h-70.999c-4.143 0-7.5 3.357-7.5 7.5s3.357 7.5 7.5 7.5z" fill="#000000" style="fill: rgb(0, 47, 168);"></path><path d="m242.145 287.747c-4.143 0-7.5 3.357-7.5 7.5s3.357 7.5 7.5 7.5h27.711c4.143 0 7.5-3.357 7.5-7.5s-3.357-7.5-7.5-7.5z" fill="#000000" style="fill: rgb(0, 47, 168);"></path><path d="m474.557 484.075-14.716-28.591c-3.371-6.55-10.041-10.618-17.407-10.618h-13.553v-96.896c0-8.652-4.73-16.577-12.346-20.682l-32.279-17.405v-197.778c0-5.271-2.367-10.171-6.495-13.442-4.145-3.284-9.483-4.473-14.639-3.262-4.884 1.149-9.774 2.211-14.667 3.202v-15.781l35.328-17.664c4.746-2.373 7.694-7.145 7.694-12.45s-2.948-10.077-7.694-12.45l-39.473-19.737c-2.325-1.163-5.086-1.039-7.298.328-2.211 1.366-3.557 3.78-3.557 6.38v74.158c-23.265 3.939-46.606 6.106-69.955 6.486v-44.781l35.328-17.664c4.746-2.373 7.694-7.145 7.694-12.45s-2.948-10.077-7.694-12.45l-39.473-19.736c-2.325-1.162-5.085-1.039-7.298.328-2.211 1.366-3.557 3.78-3.557 6.38v100.374c-23.349-.381-46.69-2.548-69.955-6.487v-18.565l35.327-17.664c4.746-2.373 7.694-7.145 7.694-12.45s-2.948-10.077-7.694-12.45l-39.473-19.736c-2.325-1.163-5.086-1.039-7.298.328-2.211 1.366-3.557 3.78-3.557 6.38v71.373c-4.894-.991-9.785-2.053-14.67-3.202-5.156-1.21-10.491-.021-14.636 3.263-4.128 3.271-6.495 8.171-6.495 13.442v71.52c0 4.143 3.357 7.5 7.5 7.5s7.5-3.357 7.5-7.5v-71.52c0-.862.441-1.393.812-1.687.313-.247.974-.629 1.889-.416 70.43 16.563 144.986 17.906 221.108.001.92-.218 1.579.168 1.892.415.37.294.812.824.812 1.687v189.69l-22.737-12.26c-4.645-2.504-10.122-2.387-14.652.319-4.529 2.704-7.234 7.469-7.234 12.744v142.267h-19.58c-4.143 0-7.5 3.357-7.5 7.5s3.357 7.5 7.5 7.5h137.382c1.722 0 3.281.951 4.07 2.483l14.716 28.591c.965 1.873.219 3.469-.146 4.067s-1.444 1.993-3.551 1.993h-403.048c-2.106 0-3.184-1.394-3.549-1.992s-1.111-2.194-.146-4.067l14.717-28.591c.788-1.532 2.348-2.483 4.069-2.483h200.289c4.143 0 7.5-3.357 7.5-7.5s-3.357-7.5-7.5-7.5h-82.487v-142.267c0-5.275-2.704-10.039-7.234-12.743-4.528-2.705-10.005-2.825-14.652-.321l-22.737 12.26v-82.973c0-4.143-3.357-7.5-7.5-7.5s-7.5 3.357-7.5 7.5v91.061l-32.28 17.406c-7.614 4.105-12.345 12.03-12.345 20.682v96.896h-13.555c-7.366 0-14.036 4.068-17.406 10.618l-14.718 28.591c-3.081 5.987-2.828 12.995.679 18.744s9.62 9.179 16.355 9.179h403.049c6.734 0 12.848-3.432 16.354-9.181s3.76-12.757.678-18.744zm-126.102-418.023v-26.688l26.688 13.344zm-169.91-.001v-26.686l26.687 13.343zm84.955-46.416 26.688 13.344-26.688 13.343zm76.132 283.23 69.785 37.627c2.753 1.484 4.464 4.35 4.464 7.479v96.896h-74.249zm-241.513 45.106c0-3.129 1.71-5.994 4.464-7.479l69.785-37.628v142.002h-74.249z" fill="#000000" style="fill: rgb(0, 47, 168);"></path></g></svg>