<!-- icon666.com - MILLIONS vector ICONS FREE --><svg xmlns="http://www.w3.org/2000/svg" id="Layer_3" data-name="Layer 3" viewBox="0 0 64 64"><path d="M57,24V21h1a1,1,0,0,0,1-1V17h3a1,1,0,0,0,1-1V12a1,1,0,0,0-.628-.929l-25-10A1.012,1.012,0,0,0,37,1H27a1.012,1.012,0,0,0-.372.071l-25,10A1,1,0,0,0,1,12v4a1,1,0,0,0,1,1H5v3a1,1,0,0,0,1,1H7v3a3,3,0,0,0,2,2.816V51.184A3,3,0,0,0,7,54v3H2a1,1,0,0,0-1,1v4a1,1,0,0,0,1,1H62a1,1,0,0,0,1-1V58a1,1,0,0,0-1-1H57V54a3,3,0,0,0-2-2.816V26.816A3,3,0,0,0,57,24ZM49,51V27h4V51ZM38,57V55h7v2ZM15,27V51H11V27Zm11-6v2H19V21Zm19,2H38V21h7ZM30,27h4V51H30Zm5-2H29a1,1,0,0,1-1-1V21h8v3A1,1,0,0,1,35,25ZM18.816,25h7.368A3,3,0,0,0,28,26.816V51.184A3,3,0,0,0,26.184,53H18.816A3,3,0,0,0,17,51.184V26.816A3,3,0,0,0,18.816,25ZM19,55h7v2H19Zm9-1a1,1,0,0,1,1-1h6a1,1,0,0,1,1,1v3H28Zm17.184-1H37.816A3,3,0,0,0,36,51.184V26.816A3,3,0,0,0,37.816,25h7.368A3,3,0,0,0,47,26.816V51.184A3,3,0,0,0,45.184,53ZM55,24a1,1,0,0,1-1,1H48a1,1,0,0,1-1-1V21h8ZM3,12.677,27.192,3h9.616L61,12.677V15H3ZM57,17v2H7V17ZM17,21v3a1,1,0,0,1-1,1H10a1,1,0,0,1-1-1V21ZM9,54a1,1,0,0,1,1-1h6a1,1,0,0,1,1,1v3H9Zm52,7H3V59H61ZM47,57V54a1,1,0,0,1,1-1h6a1,1,0,0,1,1,1v3Z" fill="#000000" style="fill: rgb(0, 47, 168);"></path><path d="M32,13a4,4,0,1,0-4-4A4,4,0,0,0,32,13Zm0-6a2,2,0,1,1-2,2A2,2,0,0,1,32,7Z" fill="#000000" style="fill: rgb(0, 47, 168);"></path></svg>