<!-- icon666.com - MILLIONS vector ICONS FREE --><svg version="1.1" id="Layer_1" xmlns="http://www.w3.org/2000/svg" xmlns:xlink="http://www.w3.org/1999/xlink" x="0px" y="0px" viewBox="0 0 512 512" style="enable-background:new 0 0 512 512;" xml:space="preserve"><g><g><path d="M259.927,400.667h-26.4c-4.143,0-7.501,3.357-7.501,7.501c0,4.142,3.357,7.501,7.501,7.501h26.4 c9.998,0,18.132,8.135,18.132,18.133v63.197H263.87v-59.641c0-4.143-3.357-7.501-7.501-7.501H61.76 c-4.143,0-7.501,3.357-7.501,7.501v59.641H40.07v-63.197c0-9.998,8.134-18.133,18.132-18.133h149.657 c4.143,0,7.501-3.358,7.501-7.501c0-4.143-3.357-7.501-7.501-7.501H58.201c-18.27,0-33.133,14.863-33.133,33.134v70.698 c0,4.143,3.357,7.501,7.501,7.501h29.191c4.143,0,7.501-3.357,7.501-7.501v-59.641h179.607v59.641 c0,4.143,3.357,7.501,7.501,7.501h29.191c4.143,0,7.501-3.357,7.501-7.501v-70.698 C293.059,415.53,278.196,400.667,259.927,400.667z" fill="#000000" style="fill: rgb(0, 47, 168);"></path></g></g><g><g><path d="M444.135,75.299c1.27-15.961-2.951-31.983-12.34-45.42c-2.371-3.394-7.05-4.224-10.444-1.852 c-3.396,2.372-4.225,7.049-1.852,10.444c8.3,11.877,11.471,26.34,9.069,40.572c-0.622,3.688,1.569,7.272,5.137,8.399 c50.938,16.094,50.955,88.497,0,104.596c-3.566,1.127-5.759,4.71-5.137,8.4c5.699,33.796-20.446,64.042-54.058,64.042 c-18.919,0-30.112-9.376-32.308-10.261c-2.262-0.912-4.809-0.757-7.32,0.933c-39.502,26.611-92.729-6.879-84.645-54.712 c0.623-3.689-1.568-7.274-5.137-8.401c-50.94-16.097-50.954-88.495,0-104.596c3.567-1.127,5.76-4.712,5.137-8.401 c-5.702-33.734,20.401-64.04,54.06-64.04c11.078,0,21.756,3.291,30.878,9.52c2.551,1.74,5.909,1.74,8.458,0 c18.015-12.3,41.322-12.54,59.358-1.555c3.537,2.155,8.153,1.034,10.308-2.504c2.154-3.537,1.034-8.152-2.504-10.308 C399.887,3.511,387.34,0,374.51,0c-12.432,0-24.469,3.256-35.107,9.459C328.764,3.257,316.725,0,304.296,0 c-40.707,0-72.845,34.852-69.626,75.299c-57.127,23.79-57,105.147,0,128.886c-3.59,45.111,36.465,82.054,81.574,74.273v226.042 c0,4.143,3.357,7.501,7.501,7.501h31.314c4.143,0,7.501-3.357,7.501-7.501v-67.339c0-4.143-3.357-7.501-7.501-7.501 c-4.143,0-7.501,3.357-7.501,7.501v59.838h-16.313V274.089c2.794-1.171,5.52-2.527,8.157-4.065 c2.637,1.538,5.362,2.894,8.156,4.065c0,3.06,0,136.177,0,139.569c0,4.143,3.357,7.501,7.501,7.501 c4.143,0,7.501-3.357,7.501-7.501v-19.662l60.917-60.918c9.029-9.031,9.027-23.723-0.002-32.75 c-9.051-9.049-23.696-9.051-32.748,0l-28.167,28.168v-50.038c45.26,7.806,85.151-29.316,81.575-74.273 C501.148,180.44,501.248,99.085,444.135,75.299z M362.56,349.713c41.861-41.863,39.995-41.165,44.54-41.165 c7.238,0,10.893,8.799,5.769,13.923l-50.309,50.31V349.713z" fill="#000000" style="fill: rgb(0, 47, 168);"></path></g></g></svg>