<!-- icon666.com - MILLIONS vector ICONS FREE --><svg id="Layer_1" viewBox="0 0 128 128" xmlns="http://www.w3.org/2000/svg"><g fill="rgb(0,0,0)"><path d="m64 4.653c-23.084 0-41.864 18.78-41.864 41.864 0 17.142 16.912 47.987 31.101 70.847 2.328 3.746 6.353 5.982 10.764 5.982 4.412 0 8.436-2.236 10.765-5.984 14.188-22.857 31.1-53.703 31.1-70.845-.002-23.083-18.782-41.864-41.866-41.864zm5.668 109.544c-1.226 1.972-3.345 3.149-5.668 3.149s-4.441-1.178-5.667-3.148c-19.19-30.918-30.197-55.587-30.197-67.68 0-19.775 16.089-35.864 35.864-35.864s35.864 16.089 35.864 35.864c0 12.093-11.007 36.762-30.196 67.679z" fill="rgb(0,0,0)" style="fill: rgb(0, 47, 168);"></path><path d="m64 31.643c-8.202 0-14.875 6.673-14.875 14.875s6.673 14.875 14.875 14.875 14.875-6.673 14.875-14.875-6.673-14.875-14.875-14.875zm0 23.75c-4.894 0-8.875-3.981-8.875-8.875s3.981-8.875 8.875-8.875 8.875 3.981 8.875 8.875-3.981 8.875-8.875 8.875z" fill="rgb(0,0,0)" style="fill: rgb(0, 47, 168);"></path></g></svg>