<!-- icon666.com - MILLIONS vector ICONS FREE --><svg viewBox="0 -9 512.05008 512" xmlns="http://www.w3.org/2000/svg"><path d="m209.558594 341.859375c-.496094 0-.988282-.050781-1.46875-.15625-8.300782-1.789063-16.84375-2.148437-25.265625-1.066406-2.269531.285156-4.53125-.558594-6.066407-2.257813-1.53125-1.699218-2.136718-4.035156-1.621093-6.265625 8.398437-36.078125-5.789063-73.660156-35.9375-95.1875-3.085938-2.21875-3.839844-6.488281-1.699219-9.628906 6.542969-9.605469 10.589844-20.691406 11.773438-32.257813.199218-1.988281 1.242187-3.792968 2.863281-4.964843 1.617187-1.171875 3.660156-1.597657 5.613281-1.164063 3.699219.828125 7.480469 1.253906 11.273438 1.265625 13.105468 0 25.722656-4.964843 35.304687-13.902343 1.472656-1.363282 3.457031-2.03125 5.453125-1.835938 1.992188.199219 3.808594 1.242188 4.984375 2.867188 13.421875 18.644531 33.445313 31.472656 55.992187 35.875 2.289063.449218 4.203126 2.007812 5.105469 4.15625.902344 2.152343.675781 4.609374-.605469 6.558593-9.339843 14.230469-11.054687 32.15625-4.578124 47.898438.714843 1.738281.703124 3.6875-.035157 5.414062-.734375 1.730469-2.136719 3.089844-3.882812 3.773438-24.617188 9.675781-43.289063 30.304687-50.476563 55.757812-.839844 3.023438-3.589844 5.117188-6.726562 5.121094zm-17.292969-15.832031c4.167969 0 8.328125.292968 12.457031.875 8.761719-24.753906 27.015625-45 50.730469-56.277344-4.453125-15.222656-3.246094-31.546875 3.402344-45.953125-19.886719-5.792969-37.59375-17.382813-50.855469-33.289063-11.289062 8.316407-24.945312 12.800782-38.96875 12.792969-2.304688-.003906-4.609375-.128906-6.898438-.378906-1.75 9.050781-4.972656 17.753906-9.542968 25.757813 24.578125 20.082031 38.863281 50.121093 38.933594 81.859374-.003907 4.894532-.347657 9.785157-1.03125 14.632813.59375-.015625 1.1875-.019531 1.773437-.019531zm0 0" fill="#000000" style="fill: rgb(0, 47, 168);"></path><path d="m512.050781 185.847656c0-53.160156-43.378906-96.410156-96.710937-96.410156-1.101563 0-2.21875.019531-3.339844.058594-6.574219-45.164063-41.6875-80.839844-86.742188-88.128906-45.054687-7.289063-89.628906 15.492187-110.109374 56.277343-32.058594-13.582031-69.148438.1875-84.578126 31.402344-9.800781-3.84375-20.234374-5.804687-30.761718-5.78125-46.507813 0-84.339844 37.71875-84.339844 84.082031.015625 17.441406 5.453125 34.445313 15.5625 48.660156-39.976562 39.792969-41.523438 104.007813-3.511719 145.679688-7.914062 13.527344-12.074219 28.925781-12.050781 44.597656 0 48.910156 39.910156 88.699219 88.980469 88.699219 23.195312-.011719 45.46875-9.054687 62.109375-25.207031 21.339844 12.914062 47.113281 16.296875 71.058594 9.328125 23.949218-6.972657 43.882812-23.660157 54.953124-46.007813 8.261719 2.199219 16.777344 3.3125 25.328126 3.308594 2.734374 0 5.445312-.113281 8.132812-.339844.625 17.851563 11.988281 33.546875 28.746094 39.726563 16.757812 6.175781 35.589844 1.605469 47.652344-11.566407 20.289062 6.105469 42.273437-.214843 56.21875-16.164062 13.949218-15.949219 17.28125-38.578125 8.523437-57.871094-8.753906-19.292968-27.984375-31.683594-49.171875-31.683594-1.320312 0-2.640625.046876-3.949219.148438.230469-1.082031.4375-2.171875.628907-3.261719 22.027343 3.308594 44.402343-3.121093 61.3125-17.617187 16.910156-14.496094 26.683593-35.628906 26.777343-57.902344.011719-12.90625-3.273437-25.605469-9.539062-36.890625 12.207031-16.550781 18.800781-36.570313 18.820312-57.136719zm-94.050781 186.660156c16.164062.003907 30.734375 9.734376 36.933594 24.660157 6.195312 14.929687 2.800781 32.121093-8.609375 43.570312-11.40625 11.449219-28.582031 14.910157-43.535157 8.769531-3.003906-1.238281-6.464843-.246093-8.359374 2.398438-7.566407 10.632812-21.140626 15.148438-33.570313 11.175781-12.429687-3.972656-20.863281-15.527343-20.859375-28.574219 0-.203124 0-.402343.011719-.601562.058593-3.460938.726562-6.882812 1.96875-10.109375.605469-1.574219.613281-3.3125.03125-4.890625-.421875-1.195312-1.167969-2.246094-2.152344-3.039062-9.167969-7.46875-12.996094-19.6875-9.71875-31.050782 3.277344-11.363281 13.019531-19.667968 24.757813-21.109375 11.738281-1.4375 23.199218 4.273438 29.121093 14.507813 1 1.726562 2.6875 2.941406 4.640625 3.339844.476563.101562.960938.152343 1.449219.152343 1.488281-.003906 2.9375-.484375 4.128906-1.371093 6.878907-5.085938 15.207031-7.828126 23.761719-7.828126zm8.171875-30.261718c-5.292969.003906-10.566406-.65625-15.691406-1.96875-1.984375-.511719-4.09375-.128906-5.769531 1.046875-1.675782 1.179687-2.75 3.03125-2.941407 5.070312-.496093 5.300781-1.5 10.535157-3 15.640625-2.347656.894532-4.628906 1.953125-6.828125 3.171875-10.027344-12.1875-25.871094-17.988281-41.398437-15.15625-15.523438 2.832031-28.296875 13.851563-33.378907 28.792969-5.078124 14.941406-1.667968 31.464844 8.914063 43.171875-2.707031.261719-5.433594.390625-8.179687.390625-9.167969.003906-18.277344-1.488281-26.96875-4.410156-3.5-1.183594-7.320313.566406-8.710938 3.988281-8.648438 21.148437-26.453125 37.210937-48.375 43.640625-21.925781 6.429688-45.582031 2.527344-64.285156-10.597656-2.894532-2.042969-6.863282-1.589844-9.230469 1.046875-14.253906 15.847656-34.5625 24.902343-55.878906 24.910156-41.347657 0-74.980469-33.507813-74.980469-74.699219-.019531-14.824218 4.398438-29.3125 12.691406-41.597656 1.882813-2.792969 1.507813-6.527344-.890625-8.890625-18.089843-17.8125-27.957031-42.347656-27.230469-67.726563.722657-25.378906 11.972657-49.3125 31.050782-66.0625 2.847656-2.515624 3.171875-6.84375.730468-9.75-21.148437-25.539062-21.546874-62.386718-.960937-88.378906 20.589844-25.988281 56.550781-34.035156 86.25-19.292968 1.789063.890624 3.871094.972656 5.726563.226562 1.851562-.742188 3.300781-2.246094 3.972656-4.125 5.164062-14.375 16.410156-25.730469 30.730468-31.035156 14.324219-5.300782 30.253907-4.003906 43.53125 3.542968 1.746094.992188 3.832032 1.183594 5.726563.53125 1.898437-.652343 3.425781-2.085937 4.191406-3.941406 16.019531-38.675781 56.476563-61.3125 97.816407-54.730468 41.34375 6.582031 72.769531 40.664062 75.984374 82.402343.140626 1.886719 1.039063 3.640625 2.492188 4.855469s3.335938 1.789062 5.21875 1.59375c2.9375-.308594 5.886719-.464844 8.839844-.46875 45.609375 0 82.710937 36.96875 82.710937 82.410156-.011719 19.027344-6.617187 37.460938-18.691406 52.167969-1.925781 2.351563-2.121094 5.679687-.480469 8.242187 12.351563 19.214844 13.195313 43.648438 2.199219 63.671876-10.996094 20.023437-32.066406 32.421874-54.90625 32.316406zm0 0" fill="#000000" style="fill: rgb(0, 47, 168);"></path><path d="m463 92.507812c-13.34375-.160156-24.898438-9.3125-28.101562-22.269531-16.5625-1.757812-28.898438-11.992187-28.898438-24.730469 0-11.371093 10.160156-21.011718 24.464844-24.023437 2.476562-11.910156 14.554687-20.976563 29.035156-20.976563 14.652344 0 26.847656 9.28125 29.121094 21.402344 13.265625 3.605469 22.378906 13.699219 22.378906 25.597656 0 11.148438-8.25 20.964844-20.546875 25.027344-3.878906 11.882813-14.949219 19.9375-27.453125 19.972656zm-22.039062-36.019531c3.816406 0 6.945312 3.039063 7.050781 6.855469.171875 8.363281 6.894531 15.164062 14.988281 15.164062 7.402344-.078124 13.65625-5.511718 14.773438-12.828124.476562-2.855469 2.667968-5.121094 5.503906-5.699219 7.953125-1.621094 13.722656-6.867188 13.722656-12.472657 0-6.261718-6.839844-11.773437-15.898438-12.824218-3.832031-.441406-6.582031-3.898438-6.15625-7.730469.039063-.316406.054688-.628906.054688-.945313 0-6.234374-7.101562-11.5-15.5-11.5s-15.5 5.265626-15.5 11.5c.003906.289063.019531.582032.050781.875.199219 1.882813-.375 3.769532-1.59375 5.226563-1.21875 1.453125-2.976562 2.347656-4.867187 2.484375-10.523438.753906-17.589844 6.25-17.589844 10.914062 0 6.296876 10.558594 11 20 11 .265625 0 .523438-.007812.785156-.015624zm0 0" fill="#000000" style="fill: rgb(0, 47, 168);"></path></svg>