<!-- icon666.com - MILLIONS vector ICONS FREE --><svg enable-background="new 0 0 520 520" viewBox="0 0 520 520" xmlns="http://www.w3.org/2000/svg"><g id="_x34_8_x2C__Battery_x2C__charge_x2C__device_x2C__science"><g id="XMLID_4_"><path id="XMLID_13_" d="m369.75 90h-29.75v-31.667c0-15.623-12.71-28.333-28.333-28.333h-103.334c-15.623 0-28.333 12.71-28.333 28.333v31.667h-29.75c-16.68 0-30.25 13.57-30.25 30.25v339.5c0 16.68 13.57 30.25 30.25 30.25h219.5c16.68 0 30.25-13.57 30.25-30.25v-339.5c0-16.68-13.57-30.25-30.25-30.25zm-169.75-31.667c0-4.595 3.738-8.333 8.333-8.333h103.333c4.595 0 8.333 3.738 8.333 8.333v31.667h-119.999zm-49.75 51.667h39.75 140 39.75c5.652 0 10.25 4.598 10.25 10.25v169.75h-240v-169.75c0-5.652 4.598-10.25 10.25-10.25zm219.5 360h-219.5c-5.652 0-10.25-4.598-10.25-10.25v-149.75h240v149.75c0 5.652-4.598 10.25-10.25 10.25z" fill="#000000" style="fill: rgb(0, 47, 168);"></path><path id="XMLID_26_" d="m210 210h40v40c0 5.523 4.477 10 10 10 5.522 0 10-4.477 10-10v-40h40c5.522 0 10-4.477 10-10s-4.478-10-10-10h-40v-40c0-5.523-4.478-10-10-10-5.523 0-10 4.477-10 10v40h-40c-5.523 0-10 4.477-10 10s4.477 10 10 10z" fill="#000000" style="fill: rgb(0, 47, 168);"></path><path id="XMLID_27_" d="m310 380h-100c-5.523 0-10 4.478-10 10s4.477 10 10 10h100c5.522 0 10-4.478 10-10s-4.478-10-10-10z" fill="#000000" style="fill: rgb(0, 47, 168);"></path></g></g></svg>