<!-- icon666.com - MILLIONS vector ICONS FREE --><svg xmlns="http://www.w3.org/2000/svg" viewBox="0 0 64 64"><g id="Layer_8" data-name="Layer 8"><path d="M17.516,46.326,15.077,56.9C15.026,57.115,15,58,15,58a3,3,0,0,0,3,3H35a3,3,0,0,0,3-3s-.026-.884-.077-1.1l-2.439-10.57a2.985,2.985,0,0,0-2.58-2.307,4.969,4.969,0,0,0-.573-1.519,1,1,0,1,0-1.732,1,2.982,2.982,0,0,1,.378,1.125A1.587,1.587,0,0,0,32.561,46a.994.994,0,0,1,.974.775l2.44,10.572C35.991,57.42,36,58,36,58a1,1,0,0,1-1,1H18a1,1,0,0,1-1-1s.009-.581.026-.655l2.439-10.57A1,1,0,0,1,20.439,46h1.989a2.929,2.929,0,0,0,2.747-2.012A3.007,3.007,0,0,1,28,42a1,1,0,0,0,0-2,5.012,5.012,0,0,0-4.708,3.313.954.954,0,0,1-.864.687H20.439A2.986,2.986,0,0,0,17.516,46.326Z" fill="#000000" style="fill: rgb(0, 47, 168);"></path><path d="M14,14a4,4,0,1,0,4-4A4,4,0,0,0,14,14Zm6,0a2,2,0,1,1-2-2A2,2,0,0,1,20,14Z" fill="#000000" style="fill: rgb(0, 47, 168);"></path><path d="M15,8a3,3,0,1,0-3-3A3,3,0,0,0,15,8Zm0-4a1,1,0,1,1-1,1A1,1,0,0,1,15,4Z" fill="#000000" style="fill: rgb(0, 47, 168);"></path><path d="M49.8,15.909A6.993,6.993,0,0,0,44.927,5.061,6,6,0,0,0,33.332,4.032,7.009,7.009,0,0,0,27,11c0,.042,0,.084,0,.126A4,4,0,0,0,25.149,17.8,4.888,4.888,0,0,0,25,19v1H17a1,1,0,0,0-.707,1.707l.829.829A3.02,3.02,0,0,1,18,24.657v4.521a15.03,15.03,0,0,1-.384,3.373L12.231,55.887A9.015,9.015,0,0,0,12,57.911V59a5.006,5.006,0,0,0,5,5H36a5.006,5.006,0,0,0,5-5V57.911a9.072,9.072,0,0,0-.23-2.024L35.384,32.551A15.03,15.03,0,0,1,35,29.178V28a1,1,0,0,0-2,0v1.178A17.024,17.024,0,0,0,33.435,33l5.386,23.337A7.069,7.069,0,0,1,39,57.911V59a3,3,0,0,1-3,3H17a3,3,0,0,1-3-3V57.911a7.011,7.011,0,0,1,.18-1.574L19.565,33A17.024,17.024,0,0,0,20,29.178V24.657A4.972,4.972,0,0,0,19.238,22H25v5.916a3.058,3.058,0,0,0,2.046,2.934A3.147,3.147,0,0,0,28,31a2.976,2.976,0,0,0,1.769-.578A3.012,3.012,0,0,0,31,28V24.834a1.191,1.191,0,0,1,.706-1.134c.146-.053.288-.113.425-.178a1.2,1.2,0,0,1,1.2.228,5.955,5.955,0,0,0,5.684.886A7,7,0,1,0,49.8,15.909Zm.072,6.239a5,5,0,0,1-9.484.789,1,1,0,0,0-1.418-.481,3.949,3.949,0,0,1-4.414-.289,3.164,3.164,0,0,0-3.284-.452,2.547,2.547,0,0,1-.251.105A3.178,3.178,0,0,0,29,24.834V28a.989.989,0,0,1-.411.808,1.02,1.02,0,0,1-.939.136A1.061,1.061,0,0,1,27,27.916V19a2.935,2.935,0,0,1,.232-1.138,1,1,0,0,0-.358-1.211,2,2,0,0,1,1.032-3.657c.038.006.123.014.161.015a.987.987,0,0,0,.785-.343,1,1,0,0,0,.23-.826A4.913,4.913,0,0,1,29,11a5,5,0,0,1,4.983-5l.1,0a.969.969,0,0,0,.995-.8A4,4,0,0,1,43,6a1,1,0,0,0,1,1,4.993,4.993,0,0,1,3.671,8.385,1,1,0,0,0,.166,1.5A4.978,4.978,0,0,1,49.873,22.148Z" fill="#000000" style="fill: rgb(0, 47, 168);"></path><path d="M25,38a3,3,0,1,0-3-3A3,3,0,0,0,25,38Zm0-4a1,1,0,1,1-1,1A1,1,0,0,1,25,34Z" fill="#000000" style="fill: rgb(0, 47, 168);"></path></g></svg>