<!-- icon666.com - MILLIONS vector ICONS FREE --><svg id="Layer_1" viewBox="0 0 128 128" xmlns="http://www.w3.org/2000/svg"><g><path d="m14.193 47.771c-.982 0-1.778.795-1.778 1.777v27.125c0 .982.796 1.779 1.778 1.779.983 0 1.779-.797 1.779-1.779v-27.125c0-.983-.796-1.777-1.779-1.777z" fill="#000000" style="fill: rgb(0, 47, 168);"></path><path d="m40.876 47.771c-.982 0-1.778.795-1.778 1.777v27.125c0 .982.796 1.779 1.778 1.779.983 0 1.779-.797 1.779-1.779v-27.125c.001-.983-.795-1.777-1.779-1.777z" fill="#000000" style="fill: rgb(0, 47, 168);"></path><path d="m28.423 31.761c-.982 0-1.777.795-1.777 1.779v60.92c0 .984.795 1.779 1.777 1.779.984 0 1.78-.795 1.78-1.779v-60.92c.001-.984-.795-1.779-1.78-1.779z" fill="#000000" style="fill: rgb(0, 47, 168);"></path><path d="m56.885 25.53c-.983 0-1.779.795-1.779 1.777v73.383c0 .984.796 1.779 1.779 1.779s1.778-.795 1.778-1.779v-73.382c.001-.983-.794-1.778-1.778-1.778z" fill="#000000" style="fill: rgb(0, 47, 168);"></path><path d="m71.115 41.317c-.983 0-1.778.797-1.778 1.779v41.807c0 .982.795 1.779 1.778 1.779s1.779-.797 1.779-1.779v-41.806c0-.983-.796-1.78-1.779-1.78z" fill="#000000" style="fill: rgb(0, 47, 168);"></path><path d="m85.345 17.53c-.982 0-1.778.795-1.778 1.777v89.383c0 .984.796 1.779 1.778 1.779.983 0 1.778-.795 1.778-1.779v-89.382c.001-.983-.794-1.778-1.778-1.778z" fill="#000000" style="fill: rgb(0, 47, 168);"></path><path d="m99.578 35.317c-.984 0-1.779.797-1.779 1.779v53.807c0 .982.795 1.779 1.779 1.779.982 0 1.777-.797 1.777-1.779v-53.806c0-.983-.795-1.78-1.777-1.78z" fill="#000000" style="fill: rgb(0, 47, 168);"></path><path d="m113.806 49.548c-.982 0-1.777.797-1.777 1.779v25.346c0 .982.795 1.779 1.777 1.779s1.779-.797 1.779-1.779v-25.346c0-.982-.796-1.779-1.779-1.779z" fill="#000000" style="fill: rgb(0, 47, 168);"></path></g></svg>