<!-- icon666.com - MILLIONS vector ICONS FREE --><svg viewBox="0 0 128 128" xmlns="http://www.w3.org/2000/svg"><g id="Outline"><path d="m91.012 28.556a1.5 1.5 0 0 1 -1.411-2.01c.167-.474 1.554-4.718-1.8-6.083-2.2-.9-4.708-3.005-5.339-5.7a6.461 6.461 0 0 1 1.778-5.932 1.5 1.5 0 1 1 2.246 1.989 3.588 3.588 0 0 0 -1.108 3.259 6.065 6.065 0 0 0 3.548 3.605c4.87 1.979 4.417 7.328 3.5 9.88a1.5 1.5 0 0 1 -1.414.992z" fill="#000000" style="fill: rgb(0, 47, 168);"></path><path d="m100.553 28.619a1.5 1.5 0 0 1 -.866-2.725c.409-.293 3.976-2.977 2-6.02-1.292-2-2.136-5.161-1.109-7.731a6.46 6.46 0 0 1 4.859-3.84 1.5 1.5 0 0 1 .7 2.917 3.588 3.588 0 0 0 -2.775 2.036 6.061 6.061 0 0 0 .842 4.987c2.858 4.414-.579 8.538-2.8 10.1a1.494 1.494 0 0 1 -.851.276z" fill="#000000" style="fill: rgb(0, 47, 168);"></path><path d="m27.145 28.556a1.5 1.5 0 0 1 -1.412-2.01c.168-.474 1.555-4.718-1.8-6.083-2.2-.9-4.708-3.005-5.339-5.7a6.458 6.458 0 0 1 1.783-5.931 1.5 1.5 0 1 1 2.246 1.989 3.588 3.588 0 0 0 -1.108 3.259 6.062 6.062 0 0 0 3.548 3.605c4.87 1.979 4.417 7.328 3.5 9.88a1.5 1.5 0 0 1 -1.418.991z" fill="#000000" style="fill: rgb(0, 47, 168);"></path><path d="m36.686 28.619a1.5 1.5 0 0 1 -.867-2.725c.41-.293 3.977-2.977 2.006-6.02-1.292-2-2.137-5.161-1.109-7.731a6.458 6.458 0 0 1 4.859-3.843 1.5 1.5 0 0 1 .7 2.917 3.59 3.59 0 0 0 -2.775 2.039 6.062 6.062 0 0 0 .843 4.987c2.858 4.414-.579 8.538-2.8 10.1a1.5 1.5 0 0 1 -.857.276z" fill="#000000" style="fill: rgb(0, 47, 168);"></path><path d="m101.288 32.454h-10.623a5.411 5.411 0 0 0 -5.405 5.405v44.9a21.017 21.017 0 0 1 -20.518 20.913 20.52 20.52 0 0 1 -14.765-5.983 21.888 21.888 0 0 1 -6.551-15.519v-44.311a5.411 5.411 0 0 0 -5.405-5.405h-10.621a5.411 5.411 0 0 0 -5.406 5.405v46.708a42.351 42.351 0 0 0 84.7 0v-46.708a5.41 5.41 0 0 0 -5.406-5.405zm-10.623 3h10.623a2.408 2.408 0 0 1 2.405 2.405v15.089h-15.433v-15.089a2.408 2.408 0 0 1 2.405-2.405zm-63.267 0h10.623a2.408 2.408 0 0 1 2.405 2.405v15.089h-15.434v-15.089a2.408 2.408 0 0 1 2.408-2.405zm36.945 88.451a39.389 39.389 0 0 1 -39.351-39.338v-28.619h15.434v26.222a24.913 24.913 0 0 0 7.449 17.66 23.445 23.445 0 0 0 16.925 6.84 24.032 24.032 0 0 0 23.46-23.912v-26.81h15.433v28.619a39.388 39.388 0 0 1 -39.35 39.338z" fill="#000000" style="fill: rgb(0, 47, 168);"></path></g></svg>