<!-- icon666.com - MILLIONS vector ICONS FREE --><svg version="1.1" id="Capa_1" xmlns="http://www.w3.org/2000/svg" xmlns:xlink="http://www.w3.org/1999/xlink" x="0px" y="0px" viewBox="0 0 512.001 512.001" style="enable-background:new 0 0 512.001 512.001;" xml:space="preserve"><g><g><path d="M326.521,379.393h-32.029v-54.089c6.534-2.275,12.866-5.119,18.894-8.535c3.675-2.083,4.966-6.751,2.883-10.426 c-2.084-3.675-6.75-4.966-10.427-2.883c-15.075,8.543-32.309,13.059-49.841,13.059c-54.906,0-99.577-43.692-99.577-97.397 s44.67-97.397,99.577-97.397c54.907,0,99.577,43.692,99.577,97.397c0,23.188-8.471,45.651-23.853,63.25 c-2.78,3.181-2.455,8.013,0.726,10.793c3.18,2.779,8.012,2.455,10.794-0.726c17.819-20.388,27.631-46.426,27.631-73.318 c0-48.416-31.285-89.795-75.063-105.714c39.756-14.364,69.415-49.682,74.351-93.148c0.585-5.153-1.059-10.325-4.511-14.19 C362.211,2.212,357.272,0,352.103,0h-40.897c-8.643,0-16.146,6.202-17.841,14.748c-3.449,17.4-19.162,30.029-37.364,30.029 s-33.914-12.629-37.364-30.029C216.943,6.202,209.44,0,200.797,0H159.9c-5.169,0-10.11,2.212-13.553,6.069 c-3.451,3.866-5.095,9.038-4.509,14.19c1.402,12.343,4.85,24.283,10.248,35.488c1.834,3.806,6.408,5.405,10.211,3.572 c3.806-1.834,5.405-6.405,3.572-10.211c-4.651-9.655-7.622-19.942-8.83-30.576c-0.128-1.132,0.396-1.91,0.72-2.274 c0.32-0.358,1.023-0.959,2.14-0.959h40.897c1.385,0,2.551,0.997,2.835,2.424c4.864,24.541,26.888,42.353,52.37,42.353 c25.482,0,47.506-17.812,52.37-42.352c0.284-1.428,1.449-2.425,2.835-2.425h40.897c1.118,0,1.821,0.601,2.14,0.959 c0.325,0.364,0.85,1.142,0.721,2.275c-5.602,49.321-48.146,86.514-98.963,86.514c-27.237,0-52.665-10.552-71.602-29.711 c-2.97-3.006-7.814-3.031-10.818-0.064c-3.004,2.97-3.033,7.813-0.063,10.818c12.195,12.339,26.718,21.577,42.627,27.333 c-43.756,15.93-75.02,57.298-75.02,105.698c0,48.902,31.917,90.621,76.385,106.182v54.091h-32.029 c-9.451,0-17.139,7.688-17.139,17.139v42.702c0,9.451,7.688,17.139,17.139,17.139h93.71v38.382c0,1.073-0.872,1.946-1.945,1.946 h-42.491c-1.073,0-1.946-0.873-1.946-1.946v-15.191c0-4.225-3.424-7.649-7.649-7.649c-4.225,0-7.649,3.425-7.649,7.649v15.191 c0,9.508,7.736,17.245,17.245,17.245h42.491c9.508,0,17.244-7.736,17.244-17.245v-38.382h32.029 c9.451,0,17.139-7.689,17.139-17.139v-42.702C343.659,387.082,335.971,379.393,326.521,379.393z M232.81,329.508 c7.493,1.513,15.249,2.308,23.191,2.308c7.822,0,15.593-0.792,23.191-2.324v49.901H232.81V329.508z M328.361,439.234 c0,1.015-0.826,1.841-1.841,1.841H185.482c-1.015,0-1.841-0.826-1.841-1.841v-42.702c0-1.014,0.826-1.84,1.841-1.84H326.52 c1.015,0,1.841,0.826,1.841,1.84V439.234z" fill="#000000" style="fill: rgb(0, 47, 168);"></path></g></g><g><g><path d="M256.001,166.695c-29.421,0-53.356,23.518-53.356,52.426c0,28.908,23.935,52.427,53.356,52.427 s53.356-23.518,53.356-52.427C309.357,190.213,285.422,166.695,256.001,166.695z M256.001,256.249 c-20.985,0-38.057-16.655-38.057-37.128c0-20.472,17.072-37.127,38.057-37.127s38.057,16.654,38.057,37.127 C294.058,239.594,276.987,256.249,256.001,256.249z" fill="#000000" style="fill: rgb(0, 47, 168);"></path></g></g></svg>