<!-- icon666.com - MILLIONS vector ICONS FREE --><svg xmlns="http://www.w3.org/2000/svg" id="Outline" viewBox="0 0 64 64"><path d="M48,46.81573A2.99257,2.99257,0,0,0,47,41h-.41187l-4.14282-7.457A2.99958,2.99958,0,0,0,39.82324,32H12.17676a2.99958,2.99958,0,0,0-2.62207,1.543L5.41187,41H5a2.99253,2.99253,0,0,0-1,5.81567V55a2.995,2.995,0,0,0,2,2.81567V59a3.00328,3.00328,0,0,0,3,3H43a3.00328,3.00328,0,0,0,3-3V57.81573A2.99507,2.99507,0,0,0,48,55ZM11.30273,34.51367A1.00163,1.00163,0,0,1,12.17676,34H39.82324a1.00163,1.00163,0,0,1,.874.51367L44.30078,41H7.69922ZM44,59a1.001,1.001,0,0,1-1,1H9a1.001,1.001,0,0,1-1-1V58H44Zm2-4a1.001,1.001,0,0,1-1,1H7a1.001,1.001,0,0,1-1-1V47H21v1a3.00328,3.00328,0,0,0,3,3h4a3.00328,3.00328,0,0,0,3-3V47H46ZM23,48V47h6v1a1.001,1.001,0,0,1-1,1H24A1.001,1.001,0,0,1,23,48Zm24-3H5a1,1,0,0,1,0-2H47a1,1,0,0,1,0,2Z" fill="#000000" style="fill: rgb(0, 47, 168);"></path><path d="M59.77972,37.11572A2.94742,2.94742,0,0,0,59.21973,34a2.92961,2.92961,0,0,0,.3789-3.47083A2.9934,2.9934,0,0,0,61,28V23a9.01043,9.01043,0,0,0-8-8.941V11.81573A2.99507,2.99507,0,0,0,55,9V5a3.00328,3.00328,0,0,0-3-3H44a3.00328,3.00328,0,0,0-3,3V9a2.995,2.995,0,0,0,2,2.81567V14.059A9.01043,9.01043,0,0,0,35,23v7h2V23a7.00818,7.00818,0,0,1,7-7h8a7.00818,7.00818,0,0,1,7,7v5a1.001,1.001,0,0,1-1,1H44v2H57a1,1,0,0,1,0,2H45.99951v2H57a1,1,0,0,1,0,2H48v2H59a1.001,1.001,0,0,1,1,1V55a1.001,1.001,0,0,1-1,1H50v2h8v1a1.001,1.001,0,0,1-1,1H48v2h9a3.00328,3.00328,0,0,0,3-3V57.81573A2.99507,2.99507,0,0,0,62,55V40A2.996,2.996,0,0,0,59.77972,37.11572ZM43,5a1.001,1.001,0,0,1,1-1h8a1.001,1.001,0,0,1,1,1V9a1.001,1.001,0,0,1-1,1H44a1.001,1.001,0,0,1-1-1Zm2,9V12h6v2Z" fill="#000000" style="fill: rgb(0, 47, 168);"></path></svg>