<!-- icon666.com - MILLIONS vector ICONS FREE --><svg viewBox="0 0 64 64" xmlns="http://www.w3.org/2000/svg"><g id="Layer_30" data-name="Layer 30"><path d="m41 48h-16a1 1 0 0 1 -1-1v-34a1 1 0 0 1 1-1h26a1 1 0 0 0 0-2h-26a3 3 0 0 0 -3 3v1h-1.321a9.01 9.01 0 0 0 -7.844 4.588l-5.768 10.251a7 7 0 0 1 -2.216 2.392l-.843.562a8.98 8.98 0 0 0 -4.008 7.488v7.719a3 3 0 0 0 3 3 1 1 0 0 0 0-2 1 1 0 0 1 -1-1v-7.719a6.986 6.986 0 0 1 3.117-5.824l.843-.557a9.034 9.034 0 0 0 2.851-3.077l5.767-10.251a7.006 7.006 0 0 1 6.101-3.572h1.321v31a3 3 0 0 0 3 3h16a1 1 0 0 0 0-2z" fill="#000000" style="fill: rgb(0, 47, 168);"></path><path d="m61 10h-6a1 1 0 0 0 0 2h6a1 1 0 0 1 1 1v34a1 1 0 0 1 -1 1 1 1 0 0 0 0 2 3 3 0 0 0 3-3v-34a3 3 0 0 0 -3-3z" fill="#000000" style="fill: rgb(0, 47, 168);"></path><path d="m13 40a7 7 0 1 0 7 7 7.009 7.009 0 0 0 -7-7zm0 12a5 5 0 1 1 5-5 5.006 5.006 0 0 1 -5 5z" fill="#000000" style="fill: rgb(0, 47, 168);"></path><path d="m13 44a3 3 0 1 0 3 3 3 3 0 0 0 -3-3zm0 4a1 1 0 1 1 1-1 1 1 0 0 1 -1 1z" fill="#000000" style="fill: rgb(0, 47, 168);"></path><path d="m51 40a7 7 0 1 0 7 7 7.009 7.009 0 0 0 -7-7zm0 12a5 5 0 1 1 5-5 5.006 5.006 0 0 1 -5 5z" fill="#000000" style="fill: rgb(0, 47, 168);"></path><path d="m51 44a3 3 0 1 0 3 3 3 3 0 0 0 -3-3zm0 4a1 1 0 1 1 1-1 1 1 0 0 1 -1 1z" fill="#000000" style="fill: rgb(0, 47, 168);"></path><path d="m19 30h-6.259l4.966-8.513a3 3 0 0 1 1.618-1.326 1 1 0 1 0 -.65-1.89 5 5 0 0 0 -2.7 2.209l-5.839 10.02a1 1 0 0 0 .864 1.5h8a1 1 0 0 0 0-2z" fill="#000000" style="fill: rgb(0, 47, 168);"></path><path d="m19 34h-2a1 1 0 0 0 0 2h2a1 1 0 0 0 0-2z" fill="#000000" style="fill: rgb(0, 47, 168);"></path><path d="m29 18a3 3 0 0 0 0 6h4a3 3 0 0 0 0-6zm5 3a1 1 0 0 1 -1 1h-4a1 1 0 0 1 0-2h4a1 1 0 0 1 1 1z" fill="#000000" style="fill: rgb(0, 47, 168);"></path><path d="m41 18a3 3 0 0 0 0 6h4a3 3 0 0 0 0-6zm5 3a1 1 0 0 1 -1 1h-4a1 1 0 0 1 0-2h4a1 1 0 0 1 1 1z" fill="#000000" style="fill: rgb(0, 47, 168);"></path><path d="m57 18h-4a3 3 0 0 0 0 6h4a3 3 0 0 0 0-6zm0 4h-4a1 1 0 0 1 0-2h4a1 1 0 0 1 0 2z" fill="#000000" style="fill: rgb(0, 47, 168);"></path></g></svg>