<!-- icon666.com - MILLIONS vector ICONS FREE --><svg id="Capa_1" enable-background="new 0 0 380.022 380.022" viewBox="0 0 380.022 380.022" xmlns="http://www.w3.org/2000/svg"><g><g id="Layer_x0020_1_31_"><g id="_315453360"><g><path d="m190.011 158.096c8.91 0 16.992 3.618 22.824 9.45 5.85 5.85 9.45 13.914 9.45 22.824s-3.618 16.992-9.45 22.824c-5.85 5.85-13.914 9.45-22.824 9.45s-16.992-3.618-22.824-9.45c-5.85-5.85-9.45-13.914-9.45-22.824s3.618-16.992 9.45-22.824c5.85-5.849 13.914-9.45 22.824-9.45zm14.346 17.947c-3.672-3.672-8.748-5.94-14.346-5.94s-10.674 2.268-14.346 5.94-5.94 8.748-5.94 14.346 2.268 10.674 5.94 14.346 8.748 5.94 14.346 5.94 10.674-2.268 14.346-5.94 5.94-8.748 5.94-14.346-2.268-10.674-5.94-14.346z" fill="#000000" style="fill: rgb(0, 47, 168);"></path><g><path d="m138.116 196.401h-90.973c.99 23.04 7.542 45.613 19.116 65.629 11.196 19.386 27.072 36.361 47.161 49.087l45.469-78.769c-5.724-4.248-10.566-9.666-14.148-15.876-3.492-6.03-5.796-12.834-6.624-20.088v.017zm-97.075-12.006h102.728v.018c3.294 0 5.976 2.682 5.976 5.976 0 7.308 1.962 14.166 5.382 20.088 3.546 6.138 8.658 11.25 14.778 14.796v.018c2.844 1.656 3.834 5.292 2.178 8.154l-51.175 88.633c-.054.108-.108.216-.18.342-1.656 2.862-5.328 3.834-8.172 2.178-24.39-14.076-43.507-33.787-56.647-56.557-13.518-23.4-20.718-50.023-20.826-77.059-.018-.18-.018-.378-.018-.558 0-3.312 2.682-5.994 5.994-5.994z" fill="#000000" style="fill: rgb(0, 47, 168);"></path><path d="m256.27 63.685c-21.06-11.034-43.723-16.29-66.097-16.29-23.13 0-45.955 5.616-66.421 16.272l45.469 78.769c2.34-1.008 4.752-1.854 7.236-2.52 4.338-1.17 8.874-1.782 13.536-1.782s9.198.612 13.536 1.782c2.484.666 4.914 1.512 7.254 2.538l45.469-78.751zm-66.097-28.242c26.28 0 52.903 6.696 77.293 20.772 2.862 1.638 3.852 5.292 2.196 8.154l-51.157 88.615c-.054.108-.108.216-.18.342-1.656 2.862-5.328 3.834-8.172 2.178-2.988-1.728-6.246-3.096-9.702-4.014-3.312-.882-6.804-1.368-10.44-1.368s-7.128.468-10.44 1.368c-3.456.918-6.696 2.286-9.702 4.014-2.862 1.656-6.516.684-8.172-2.178l-51.355-88.939h.018l-.018-.018c-1.638-2.862-.666-6.516 2.196-8.154 23.58-13.59 50.419-20.754 77.635-20.754z" fill="#000000" style="fill: rgb(0, 47, 168);"></path><path d="m332.897 196.401h-90.991c-.828 7.254-3.15 14.058-6.624 20.088-3.582 6.21-8.406 11.61-14.13 15.858l45.487 78.805c8.748-5.544 16.956-12.078 24.444-19.584 8.658-8.658 16.326-18.576 22.734-29.682.054-.108.126-.198.18-.306 6.3-10.98 10.98-22.464 14.13-34.219 2.754-10.242 4.32-20.628 4.734-30.96zm-96.625-12.006h102.728v.018c3.294 0 5.976 2.682 5.976 5.976.018 13.41-1.71 26.874-5.238 40.069-3.402 12.654-8.478 25.11-15.354 37.063-.054.108-.126.234-.18.342-6.93 12.006-15.246 22.752-24.624 32.13-9.576 9.576-20.268 17.748-31.753 24.408-.108.072-.198.126-.306.198-2.862 1.656-6.516.684-8.172-2.178l-51.355-88.957c-1.656-2.862-.684-6.516 2.178-8.172 6.138-3.546 11.232-8.658 14.778-14.796 3.348-5.778 5.292-12.474 5.364-19.602-.018-.162-.018-.324-.018-.486 0-3.312 2.682-5.994 5.994-5.994z" fill="#000000" style="fill: rgb(0, 47, 168);"></path></g></g><path d="m190.011 0c52.471 0 99.974 21.258 134.354 55.657 34.381 34.381 55.657 81.883 55.657 134.354s-21.258 99.974-55.657 134.354c-34.381 34.381-81.883 55.657-134.354 55.657s-99.974-21.258-134.354-55.657c-34.381-34.38-55.657-81.883-55.657-134.354s21.258-99.974 55.657-134.354c34.38-34.381 81.883-55.657 134.354-55.657zm125.876 64.135c-32.221-32.221-76.717-52.129-125.876-52.129s-93.656 19.926-125.876 52.129c-32.221 32.22-52.129 76.717-52.129 125.876s19.926 93.655 52.129 125.876c32.22 32.22 76.717 52.129 125.876 52.129s93.655-19.926 125.876-52.129c32.22-32.221 52.129-76.717 52.129-125.876s-19.927-93.656-52.129-125.876z" fill="#000000" style="fill: rgb(0, 47, 168);"></path></g></g></g></svg>