<!-- icon666.com - MILLIONS vector ICONS FREE --><svg viewBox="0 0 512 512" xmlns="http://www.w3.org/2000/svg"><g id="_86_Radon" data-name="86 Radon"><path d="m444.684 507.004h-377.3701a62.3853 62.3853 0 0 1 -62.3095-62.32v-256.65a6 6 0 0 1 12 0v256.65a50.3712 50.3712 0 0 0 50.31 50.32h377.37a50.3768 50.3768 0 0 0 50.32-50.32v-377.3699a50.3719 50.3719 0 0 0 -50.32-50.31h-377.3705a50.3664 50.3664 0 0 0 -50.3095 50.31v73.92a6 6 0 0 1 -12 0v-73.92a62.38 62.38 0 0 1 62.31-62.31h377.37a62.386 62.386 0 0 1 62.32 62.31v377.37a62.3908 62.3908 0 0 1 -62.3204 62.3199z" fill="#000000" style="fill: rgb(0, 47, 168);"></path><path d="m11.0044 175.1339a6 6 0 0 1 -6-6v-9a6 6 0 0 1 12 0v9a6 6 0 0 1 -6 6z" fill="#000000" style="fill: rgb(0, 47, 168);"></path><path d="m424.6694 470.48h-337.3389a45.8624 45.8624 0 0 1 -45.81-45.81v-337.3393a45.8624 45.8624 0 0 1 45.81-45.8107h337.3389a45.8624 45.8624 0 0 1 45.81 45.81v337.34a45.8624 45.8624 0 0 1 -45.81 45.81zm-337.3389-416.96a33.8486 33.8486 0 0 0 -33.81 33.81v337.34a33.8487 33.8487 0 0 0 33.8105 33.81h337.3384a33.8486 33.8486 0 0 0 33.81-33.81v-337.3393a33.8486 33.8486 0 0 0 -33.81-33.81z" fill="#000000" style="fill: rgb(0, 47, 168);"></path><path d="m221.7085 187.1745c-8.56 0-15.3164-1.2989-20.6563-3.9707a31.5061 31.5061 0 0 1 -13.1494-12.4161 35.5094 35.5094 0 0 1 -4.8359-18.3369 34.3792 34.3792 0 0 1 3.9023-16.2427 36.0627 36.0627 0 0 1 6.52-8.7148 34.1415 34.1415 0 0 1 -3.3974-5.9263 30.7135 30.7135 0 0 1 -2.6436-12.5537 31.7861 31.7861 0 0 1 4.3518-16.3333 30.3053 30.3053 0 0 1 12.261-11.6 37.18 37.18 0 0 1 17.457-4.0185 35.9184 35.9184 0 0 1 17.2666 4.0835 30.8 30.8 0 0 1 12.1494 11.8171 32.1208 32.1208 0 0 1 4.3985 16.3056 29.0265 29.0265 0 0 1 -2.376 11.6978 32.6446 32.6446 0 0 1 -3.7549 6.3139 33.9231 33.9231 0 0 1 6.5166 8.4908 34.6261 34.6261 0 0 1 4.1866 16.6806 35.008 35.008 0 0 1 -4.86 17.9741 32.2023 32.2023 0 0 1 -13.2754 12.6319c-5.3637 2.7324-12.1127 4.1177-20.0609 4.1177zm-.19-98.1133a25.3531 25.3531 0 0 0 -11.8818 2.645 18.2275 18.2275 0 0 0 -7.4912 7.0552 19.6773 19.6773 0 0 0 -2.6963 10.2519 18.54 18.54 0 0 0 1.6113 7.6836 22.4769 22.4769 0 0 0 2.68 4.481 10.6268 10.6268 0 0 1 -1.1787 14.2358 24.5266 24.5266 0 0 0 -4.9814 6.3994 22.2072 22.2072 0 0 0 -2.5127 10.6377 23.3607 23.3607 0 0 0 3.166 12.2305 19.439 19.439 0 0 0 8.1885 7.791c3.5839 1.793 8.7275 2.7022 15.2871 2.7022 6.0371 0 10.9531-.9454 14.6123-2.81a20.1183 20.1183 0 0 0 8.3779-8.0191 22.86 22.86 0 0 0 3.2061-11.895 22.4537 22.4537 0 0 0 -2.7364-10.9629 21.9668 21.9668 0 0 0 -4.8886-6.1045 10.532 10.532 0 0 1 -1.3331-14.4443 23.0712 23.0712 0 0 0 3.0147-4.78 16.8817 16.8817 0 0 0 1.3711-6.8911 19.9956 19.9956 0 0 0 -2.7793-10.2861 18.7054 18.7054 0 0 0 -7.4736-7.2793 24.0862 24.0862 0 0 0 -11.5624-2.641zm-.0648 81.2846c-6.0528 0-11.0928-1.8662-14.9824-5.5473a18.7338 18.7338 0 0 1 -6.0039-13.9155 18.1154 18.1154 0 0 1 6.3886-13.7818 21.5352 21.5352 0 0 1 14.7891-5.4267 20.6581 20.6581 0 0 1 14.5683 5.5156 18.7877 18.7877 0 0 1 6.1006 14.0742 18.2 18.2 0 0 1 -6.0049 13.8774c-3.8135 3.4532-8.8116 5.2041-14.8555 5.2041zm.1914-26.6713a9.6355 9.6355 0 0 0 -6.8037 2.3842 6.1254 6.1254 0 0 0 -2.374 4.8243 6.6581 6.6581 0 0 0 2.2509 5.1987c1.61 1.5239 3.8135 2.2641 6.7354 2.2641 3.0166 0 5.2412-.6865 6.8008-2.0991a6.1855 6.1855 0 0 0 2.0595-4.9824 6.7164 6.7164 0 0 0 -2.2822-5.2954 8.8019 8.8019 0 0 0 -6.3868-2.2944zm-.3818-16.6382a15.9647 15.9647 0 0 1 -11.6475-4.8345 16.3926 16.3926 0 0 1 -4.7031-11.7388 16.1425 16.1425 0 0 1 4.5439-11.5776 15.7 15.7 0 0 1 11.4893-4.6782 16.6652 16.6652 0 0 1 11.8486 4.498 15.7424 15.7424 0 0 1 4.7568 11.6319 16.6862 16.6862 0 0 1 -4.5849 11.9033 15.9038 15.9038 0 0 1 -11.7032 4.7959zm-.3174-20.8291a3.6652 3.6652 0 0 0 -2.9229 1.082 4.0981 4.0981 0 0 0 -1.11 3.1738 4.345 4.345 0 0 0 1.2646 3.3306 3.9579 3.9579 0 0 0 3.086 1.2427 3.8555 3.8555 0 0 0 3.0927-1.1548 4.5958 4.5958 0 0 0 1.1953-3.5444 3.7105 3.7105 0 0 0 -1.0879-2.9947 4.6231 4.6231 0 0 0 -3.5179-1.1352z" fill="#000000" style="fill: rgb(0, 47, 168);"></path><path d="m293.7846 187.1745a33.8371 33.8371 0 0 1 -25.3877-10.648c-6.6875-6.9888-10.0781-15.168-10.0781-24.31a36.5305 36.5305 0 0 1 1.5508-10.4091c.9824-3.312 3.084-8.0591 6.4228-14.5113l20.1776-39.502a14.498 14.498 0 0 1 19.334-6.3511 14.4514 14.4514 0 0 1 6.3838 19.5449l-8.5378 16.5689a33.2881 33.2881 0 0 1 15.2539 9.1279c6.6552 6.8086 10.0293 15.3345 10.0293 25.3413a35.0545 35.0545 0 0 1 -35.1485 35.1485zm5.5635-95.2564a2.4616 2.4616 0 0 0 -2.1914 1.3359l-20.1914 39.5293c-3.6846 7.1182-5.0732 10.6914-5.5928 12.441a24.57 24.57 0 0 0 -1.0537 6.9921c0 6.03 2.208 11.2681 6.749 16.0147a21.9718 21.9718 0 0 0 16.7168 6.9434 23.0551 23.0551 0 0 0 23.1485-23.1485c0-6.8569-2.1621-12.4018-6.61-16.9526a21.2329 21.2329 0 0 0 -15.9033-6.7031 6.0007 6.0007 0 0 1 -5.334-8.7486l12.4346-24.13a2.4508 2.4508 0 0 0 -1.083-3.3154v-.0005a2.4348 2.4348 0 0 0 -1.0893-.2577zm-5.8808 78.6182a17.0975 17.0975 0 0 1 -12.56-5.5357 19.5609 19.5609 0 0 1 -.1992-26.3188 17.0048 17.0048 0 0 1 12.6953-5.4834 17.6186 17.6186 0 0 1 12.9853 5.4214 19.4576 19.4576 0 0 1 -.1318 26.5014 17.594 17.594 0 0 1 -12.7896 5.4151zm-.0635-25.3379a4.9581 4.9581 0 0 0 -3.9434 1.6929 7.59 7.59 0 0 0 .1172 9.8129 5.0372 5.0372 0 0 0 3.89 1.8321 5.55 5.55 0 0 0 4.23-1.8257 6.6 6.6 0 0 0 1.835-4.9385 6.5138 6.5138 0 0 0 -1.78-4.8213 5.5881 5.5881 0 0 0 -4.3488-1.7524z" fill="#000000" style="fill: rgb(0, 47, 168);"></path><path d="m207.0132 441.2667a25.7243 25.7243 0 0 1 -22.7667-13.6884l-35.332-66.5445v53.7251a26.5078 26.5078 0 0 1 -53.0156 0v-186.4033a14.5839 14.5839 0 0 1 14.5674-14.5674h34.8877c24.8369 0 42.2295 2.2378 53.1709 6.8418a58.2162 58.2162 0 0 1 27.1269 23.5239c6.7207 10.7881 10.128 23.6343 10.128 38.1832 0 15.3662-3.8 28.4892-11.295 39.0048-6.3564 8.919-15.48 16.0537-27.125 21.2139l32.4024 60.813a25.7766 25.7766 0 0 1 -22.749 37.8979zm-61.7549-103.26a8.3251 8.3251 0 0 1 7.3711 4.4341l42.2158 79.51a13.7771 13.7771 0 1 0 24.3271-12.9394l-32.7861-61.5323a11.2452 11.2452 0 0 1 5.4648-15.6113c9.9659-4.3047 17.6582-10.189 22.8623-17.4907 6.0157-8.4409 9.0665-19.2212 9.0665-32.04 0-12.2715-2.7969-22.983-8.3125-31.8374-5.5254-8.8667-12.59-15.02-21.5967-18.8091-9.3076-3.9165-25.6309-5.9024-48.5166-5.9024h-34.8877a2.57 2.57 0 0 0 -2.5674 2.5674v186.4033a14.5078 14.5078 0 0 0 29.0156 0v-68.4077a8.3535 8.3535 0 0 1 8.3438-8.3442zm10.5078-27.99h-6.4541a12.4116 12.4116 0 0 1 -12.3975-12.3979v-31.4424a12.4116 12.4116 0 0 1 12.3975-12.3979h4.848c11.8946 0 19.7041.8437 24.5782 2.6552a26.2591 26.2591 0 0 1 12.6093 9.6787 26.8527 26.8527 0 0 1 4.7354 15.712c0 9.9785-3.3457 17.3706-9.9434 21.9711-6.0023 4.1861-15.9369 6.2212-30.3734 6.2212zm-6.4541-44.2382a.3985.3985 0 0 0 -.3975.3979v31.4424a.3985.3985 0 0 0 .3975.3979h6.4541c14.6142 0 20.8506-2.21 23.5088-4.0639 1.1894-.8291 4.8076-3.3521 4.8076-12.1284a14.8927 14.8927 0 0 0 -2.5674-8.8326 14.2773 14.2773 0 0 0 -6.96-5.31c-1.9111-.7105-7.1035-1.9028-20.3955-1.9028z" fill="#000000" style="fill: rgb(0, 47, 168);"></path><path d="m390.3266 441.2667a25.8045 25.8045 0 0 1 -25.7754-25.7754v-50.0175c0-22.91-1.2763-32.3926-2.3466-36.313-1.3633-4.9942-3.585-8.6236-6.7911-11.0957-3.1884-2.4585-7.1279-3.6538-12.0439-3.6538a23.4419 23.4419 0 0 0 -16.7285 6.5058c-4.8877 4.5645-8.3565 11.107-10.3115 19.4449-.7276 3.0976-1.5948 10.9814-1.5948 30.9643v43.9453a25.9951 25.9951 0 1 1 -51.99 0v-134.03a11.3631 11.3631 0 0 1 11.35-11.35h29.29a11.3666 11.3666 0 0 1 11.2852 10.13 83.6328 83.6328 0 0 1 16.4551-9.3081 65.8014 65.8014 0 0 1 24.8564-4.9238c17.3721 0 32.335 6.1611 44.4707 18.3125 10.3926 10.5185 15.65 25.9341 15.65 45.8418v85.5468a25.8045 25.8045 0 0 1 -25.7756 25.7759zm-46.9566-138.8554c7.56 0 14.0781 2.0693 19.3721 6.1509 5.2763 4.0693 8.99 9.936 11.039 17.4375 1.8643 6.8271 2.77 19.7392 2.77 39.4741v50.0175a13.7754 13.7754 0 0 0 27.5508 0v-85.5468c0-16.6377-4.0928-29.2154-12.164-37.3848-9.918-9.9307-21.6875-14.7695-35.9571-14.7695a53.848 53.848 0 0 0 -20.3418 4.0425c-5.7148 2.32-12.1728 6.3046-19.1963 11.8442a8.4712 8.4712 0 0 1 -13.708-6.6606v-5.1246h-27.99v133.38a13.9951 13.9951 0 1 0 27.99 0v-43.9454c0-17.2046.625-28.23 1.9121-33.706 2.5059-10.688 7.15-19.2593 13.8028-25.4727a35.3969 35.3969 0 0 1 24.9204-9.7363z" fill="#000000" style="fill: rgb(0, 47, 168);"></path></g></svg>