<!-- icon666.com - MILLIONS vector ICONS FREE --><svg version="1.1" id="Capa_1" xmlns="http://www.w3.org/2000/svg" xmlns:xlink="http://www.w3.org/1999/xlink" x="0px" y="0px" viewBox="0 0 443.733 443.733" style="enable-background:new 0 0 443.733 443.733;" xml:space="preserve"><g><g><path d="M221.866,148.907c-39.962,0.35-72.205,32.784-72.32,72.747v10.667h21.333v-10.667 c0.023-13.622,5.474-26.674,15.147-36.267c4.227-4.146,9.134-7.537,14.507-10.027l9.387,10.453l39.04-36.907H221.866z" fill="#000000" style="fill: rgb(0, 47, 168);"></path></g></g><g><g><path d="M294.399,221.653v-10.667h-21.333v10.667c0.036,19.436-10.848,37.245-28.16,46.08l-13.227-10.667l-6.613,8.32 l-28.8,29.013h25.6c40.059,0,72.533-32.474,72.534-72.533C294.399,221.796,294.399,221.725,294.399,221.653z" fill="#000000" style="fill: rgb(0, 47, 168);"></path></g></g><g><g><path d="M412.547,0.174c-0.621-0.114-1.25-0.172-1.881-0.174h-377.6c-5.891,0.022-10.649,4.815-10.628,10.706 c0.002,0.631,0.061,1.26,0.174,1.881l75.093,422.4c0.924,5.052,5.318,8.728,10.453,8.747h227.413 c5.136-0.019,9.529-3.695,10.453-8.747l75.093-422.4C422.18,6.792,418.342,1.235,412.547,0.174z M326.612,421.973H117.119 L45.866,21.333h352L326.612,421.973z" fill="#000000" style="fill: rgb(0, 47, 168);"></path></g></g></svg>