<!-- icon666.com - MILLIONS vector ICONS FREE --><svg viewBox="0 0 512 512" xmlns="http://www.w3.org/2000/svg"><path d="m473.59375 206.953125c-5.585938-24.933594-15.347656-48.476563-29.0625-70.113281l22.679688-31.667969-60.382813-60.382813-31.667969 22.679688c-21.640625-13.71875-45.179687-23.476562-70.113281-29.0625l-6.351563-38.40625h-85.390624l-6.351563 38.40625c-24.933594 5.585938-48.472656 15.34375-70.113281 29.0625l-31.667969-22.679688-60.382813 60.382813 22.679688 31.667969c-13.714844 21.640625-23.476562 45.179687-29.0625 70.113281l-38.40625 6.351563v85.390624l38.40625 6.355469c5.585938 24.929688 15.347656 48.472657 29.0625 70.113281l-22.679688 31.664063 60.382813 60.382813 31.664063-22.679688c21.640624 13.714844 45.183593 23.476562 70.113281 29.0625l6.355469 38.40625h85.390624l6.351563-38.40625c24.933594-5.585938 48.476563-15.347656 70.113281-29.0625l31.667969 22.679688 60.382813-60.382813-22.679688-31.667969c13.714844-21.636718 23.476562-45.179687 29.0625-70.113281l38.40625-6.351563v-85.390624zm23.40625 79.019531-36.019531 5.957032-1.015625 5.085937c-5.316406 26.59375-15.664063 51.554687-30.753906 74.191406l-2.871094 4.3125 21.265625 29.699219-42.386719 42.386719-29.699219-21.265625-4.3125 2.875c-22.640625 15.085937-47.601562 25.433594-74.195312 30.75l-5.082031 1.019531-5.957032 36.015625h-59.945312l-5.957032-36.019531-5.082031-1.015625c-26.59375-5.316406-51.558593-15.664063-74.195312-30.753906l-4.3125-2.871094-29.699219 21.265625-42.386719-42.386719 21.265625-29.699219-2.875-4.3125c-15.085937-22.640625-25.433594-47.601562-30.75-74.195312l-1.015625-5.082031-36.019531-5.957032v-59.945312l36.019531-5.957032 1.015625-5.082031c5.316406-26.59375 15.660156-51.554687 30.75-74.195312l2.875-4.3125-21.265625-29.699219 42.386719-42.386719 29.699219 21.265625 4.3125-2.871094c22.640625-15.09375 47.601562-25.4375 74.191406-30.753906l5.082031-1.015625 5.960938-36.019531h59.945312l5.957032 36.019531 5.082031 1.015625c26.59375 5.316406 51.554687 15.660156 74.195312 30.753906l4.3125 2.871094 29.699219-21.265625 42.386719 42.386719-21.265625 29.699219 2.871094 4.3125c15.089843 22.640625 25.4375 47.601562 30.753906 74.195312l1.015625 5.082031 36.019531 5.957032zm0 0" fill="#000000" style="fill: rgb(0, 47, 168);"></path><path d="m369.503906 161.289062c22.128906 26.492188 34.316406 60.128907 34.316406 94.710938 0 81.507812-66.3125 147.820312-147.820312 147.820312-24.519531 0-48.800781-6.125-70.210938-17.707031l-7.136718 13.191407c23.59375 12.765624 50.339844 19.515624 77.347656 19.515624 89.777344 0 162.820312-73.042968 162.820312-162.820312 0-38.089844-13.425781-75.140625-37.804687-104.328125zm0 0" fill="#000000" style="fill: rgb(0, 47, 168);"></path><path d="m108.179688 256c0-81.507812 66.3125-147.820312 147.820312-147.820312 37.261719 0 72.847656 13.902343 100.203125 39.140624l10.171875-11.019531c-30.132812-27.808593-69.332031-43.121093-110.375-43.121093-89.777344 0-162.820312 73.042968-162.820312 162.820312 0 52.082031 25.226562 101.429688 67.484374 132.007812l8.792969-12.152343c-38.371093-27.765625-61.277343-72.570313-61.277343-119.855469zm0 0" fill="#000000" style="fill: rgb(0, 47, 168);"></path><path d="m265.824219 357.425781v-65.917969c6.699219 2.363282 19.539062 6.085938 33.953125 6.085938 10.03125 0 20.820312-1.804688 30.828125-7.125 17.433593-9.269531 28.601562-26.980469 33.191406-52.644531l.949219-5.308594-4.730469-2.589844c-1.308594-.71875-32.425781-17.417969-62.105469-4.789062-13.140625 5.59375-23.699218 15.90625-31.574218 30.757812-1.460938-23.015625-8.976563-41.011719-22.457032-53.675781-26.875-25.25-67.011718-19.128906-68.703125-18.855469l-5.210937.835938-.972656 5.1875c-5.695313 30.394531-.839844 54.484375 14.441406 71.589843 20.117187 22.527344 52.414062 26.03125 67.386718 26.367188v70.082031zm37.875-118.445312c16.917969-7.253907 35.496093-1.628907 44.164062 1.863281-4.199219 17.78125-12.335937 29.996094-24.242187 36.351562-17.617188 9.402344-39.816406 4.328126-50.414063.949219 6.632813-20.171875 16.871094-33.332031 30.492188-39.164062zm-109.121094 11.957031c-11.105469-12.46875-15.050781-30.371094-11.753906-53.261719 10.46875-.605469 34.304687-.007812 50.785156 15.472657 13.304687 12.5 19.269531 32.390624 17.769531 59.175781-12.554687-.296875-40.53125-3.121094-56.800781-21.386719zm0 0" fill="#000000" style="fill: rgb(0, 47, 168);"></path><path d="m274.679688 73.980469h-15v-15h15zm-25 0h-15v-15h15zm0 0" fill="#000000" style="fill: rgb(0, 47, 168);"></path></svg>