<!-- icon666.com - MILLIONS vector ICONS FREE --><svg xmlns="http://www.w3.org/2000/svg" viewBox="0 0 64 64"><g id="Sound_Audio" data-name="Sound Audio"><path d="M46,32a9.01,9.01,0,0,0-8-8.941V10a1.0008,1.0008,0,0,0-1.6406-.7686L24.6377,19H13a13,13,0,0,0,0,26H24.6377l11.7217,9.7686A1.0008,1.0008,0,0,0,38,54V40.941A9.01,9.01,0,0,0,46,32ZM2,32A11.0125,11.0125,0,0,1,13,21V43A11.0125,11.0125,0,0,1,2,32ZM36,51.8652,25.6406,43.2314A1.0018,1.0018,0,0,0,25,43H15V21H25a1.0018,1.0018,0,0,0,.6406-.2314L36,12.1348Zm2-12.9365V25.0713a7.0006,7.0006,0,0,1,0,13.8574Z" fill="#000000" style="fill: rgb(0, 47, 168);"></path><path d="M51.8467,17.1533a1,1,0,0,0-1.4141,1.4141,18.9883,18.9883,0,0,1,0,26.8652,1,1,0,1,0,1.4141,1.4141,20.9877,20.9877,0,0,0,0-29.6934Z" fill="#000000" style="fill: rgb(0, 47, 168);"></path><path d="M47.6094,21.3936a1.0006,1.0006,0,1,0-1.418,1.4121,13.0022,13.0022,0,0,1,0,18.3886,1.0006,1.0006,0,0,0,1.418,1.4121,15.0063,15.0063,0,0,0,0-21.2128Z" fill="#000000" style="fill: rgb(0, 47, 168);"></path><path d="M56.0859,12.9121a1,1,0,0,0-1.4121,1.416,24.9767,24.9767,0,0,1,0,35.3438,1,1,0,1,0,1.4121,1.416,26.976,26.976,0,0,0,0-38.1758Z" fill="#000000" style="fill: rgb(0, 47, 168);"></path></g></svg>